<svg xmlns="http://www.w3.org/2000/svg" viewBox="0 0 400 400" fill="none"
     role="img" aria-hidden="true">
  <defs>
    <pattern id="p0" width="4.0" height="4.0" patternUnits="userSpaceOnUse"><circle cx="2.0" cy="2.0" r="1.05" fill="#5855ff"/></pattern>
    <linearGradient id="g0" gradientUnits="userSpaceOnUse" x1="72" y1="332" x2="332" y2="72"><stop offset="0" stop-color="#fff" stop-opacity="1"/><stop offset="0.55" stop-color="#fff" stop-opacity="0.8"/><stop offset="0.95" stop-color="#fff" stop-opacity="0"/></linearGradient>
    <filter id="f0" x="0" y="0" width="100%" height="100%" color-interpolation-filters="sRGB"><feTurbulence type="fractalNoise" baseFrequency="0.4" numOctaves="2" seed="11" stitchTiles="stitch" result="n"/><feColorMatrix in="n" type="luminanceToAlpha" result="na"/><feComposite in="SourceGraphic" in2="na" operator="arithmetic" k2="1" k3="-1" k4="0.5" result="d"/><feComponentTransfer in="d" result="t"><feFuncA type="discrete" tableValues="0 1"/></feComponentTransfer><feFlood flood-color="#fff" result="w"/><feComposite in="w" in2="t" operator="in"/></filter>
    <mask id="m0"><rect width="400" height="400" fill="url(#g0)" filter="url(#f0)"/></mask>
    <pattern id="p1" width="4.0" height="4.0" patternUnits="userSpaceOnUse"><circle cx="2.0" cy="2.0" r="1.7" fill="#5855ff"/></pattern>
    <linearGradient id="g1" gradientUnits="userSpaceOnUse" x1="72" y1="332" x2="332" y2="72"><stop offset="0" stop-color="#fff" stop-opacity="1"/><stop offset="0.32" stop-color="#fff" stop-opacity="0.56"/><stop offset="0.66" stop-color="#fff" stop-opacity="0"/></linearGradient>
    <filter id="f1" x="0" y="0" width="100%" height="100%" color-interpolation-filters="sRGB"><feTurbulence type="fractalNoise" baseFrequency="0.4" numOctaves="2" seed="27" stitchTiles="stitch" result="n"/><feColorMatrix in="n" type="luminanceToAlpha" result="na"/><feComposite in="SourceGraphic" in2="na" operator="arithmetic" k2="1" k3="-1" k4="0.5" result="d"/><feComponentTransfer in="d" result="t"><feFuncA type="discrete" tableValues="0 1"/></feComponentTransfer><feFlood flood-color="#fff" result="w"/><feComposite in="w" in2="t" operator="in"/></filter>
    <mask id="m1"><rect width="400" height="400" fill="url(#g1)" filter="url(#f1)"/></mask>
    <pattern id="p2" width="4.0" height="4.0" patternUnits="userSpaceOnUse"><circle cx="2.0" cy="2.0" r="2.3" fill="#5855ff"/></pattern>
    <linearGradient id="g2" gradientUnits="userSpaceOnUse" x1="72" y1="332" x2="332" y2="72"><stop offset="0" stop-color="#fff" stop-opacity="0.9"/><stop offset="0.17" stop-color="#fff" stop-opacity="0.4"/><stop offset="0.38" stop-color="#fff" stop-opacity="0"/></linearGradient>
    <filter id="f2" x="0" y="0" width="100%" height="100%" color-interpolation-filters="sRGB"><feTurbulence type="fractalNoise" baseFrequency="0.4" numOctaves="2" seed="41" stitchTiles="stitch" result="n"/><feColorMatrix in="n" type="luminanceToAlpha" result="na"/><feComposite in="SourceGraphic" in2="na" operator="arithmetic" k2="1" k3="-1" k4="0.5" result="d"/><feComponentTransfer in="d" result="t"><feFuncA type="discrete" tableValues="0 1"/></feComponentTransfer><feFlood flood-color="#fff" result="w"/><feComposite in="w" in2="t" operator="in"/></filter>
    <mask id="m2"><rect width="400" height="400" fill="url(#g2)" filter="url(#f2)"/></mask>
    <g id="grain"><rect width="400" height="400" fill="url(#p0)" mask="url(#m0)"/><rect width="400" height="400" fill="url(#p1)" mask="url(#m1)"/><rect width="400" height="400" fill="url(#p2)" mask="url(#m2)"/></g>
  </defs>
  <g stroke="#141418" stroke-width="3.2" stroke-linejoin="round" stroke-linecap="round">
    <clipPath id="cc"><path d="M112,116 H288 V244 H112 Z"/></clipPath>
    <g transform="rotate(-6 200 200)">
      <path d="M288,116 L301,103 V231 L288,244 Z" fill="#fff"/>
      <path d="M112,116 L125,103 H301 L288,116 Z" fill="#fff"/>
      <path d="M112,116 H288 V244 H112 Z" fill="#fff"/>
      <g clip-path="url(#cc)"><use href="#grain"/></g>
      <path d="M288,116 L301,103 V231 L288,244 Z"/><path d="M112,116 L125,103 H301 L288,116 Z"/>
      <path d="M112,116 H288 V244 H112 Z"/>
      <path d="M186,152 L226,180 L186,208 Z" fill="#fff"/>
      <rect x="112" y="266" width="176" height="22" rx="4" fill="#fff"/>
      <rect x="112" y="266" width="176" height="22" rx="4"/>
      <path d="M156,266 v22 M200,266 v22 M244,266 v22"/>
      <rect x="190" y="256" width="20" height="42" rx="4" fill="#fff"/>
      <rect x="190" y="256" width="20" height="42" rx="4"/>
    </g>
  </g>
</svg>
